<?xml version="1.0" encoding="UTF-8"?>
<svg id="Layer_2" data-name="Layer 2" xmlns="http://www.w3.org/2000/svg" viewBox="0 0 529.61 396.05">
  <g id="Layer_1-2" data-name="Layer 1">
    <g>
      <!-- <path d="M383.43,124.88c3.73-7.53,10.66-13.92,18.97-15.87,15.21-3.58,32.84,8.36,36.81,23.11,1.52,5.64,3.98,20.12,2.59,25.42-1.75,6.65-8.33,14-11.91,19.87,1.12,0,2.07.43,3.22.4,15.76-.41,31.14-6.76,46.12-10.64,7.26-1.88,16.01-4.87,22.89-.86,15.47,9,20.91,27.85,24.6,44.29,7.51,33.45-.19,56.62-15.39,86.09-7.49,14.52-22.67,21.84-35.48,30.76-2.12,1.47-3.59,3.9-6.36,3.58-1.43-.17-4.69-1.88-6.22-2.57-12.53-5.64-24.02-13.86-36.53-19.81-8.01-3.81-25.98-12.18-34.12-13.46-8.74-1.38-16.92,7.5-24.49,10.85-1.55,1.85-.23,1.65,1.45,1.55,4.91-.27,13.76-2.69,18.07-.97,2.67,1.07,5.96,6.02,1.99,7.32-.37.12-6.72.9-5.42,2,7.83.69,10.55,1.17,9.89,9.7-.99,12.84-12.55,21.68-24.07,25.04-11.57,3.37-18.09,2.17-25.58-7.36-1.52-1.94-8.53-13.28-9.63-13.6-.45-.13-.89-.14-1.34.02l-39.5,24.67c-.6.64,1.64,1.42,2.03,1.59,6,2.67,11.56,3.71,16.63,8.49,7.51,7.08,7.79,18.55.2,25.71-8.64,8.14-20.53,4.39-29.63-.85-1.43-.82-4.86-3.87-6.15-3.74-1.13.11-2.51,3.43-3.44,4.58-9.25,11.51-18.21,4.05-25.69-4.77-2.51-2.96-3.57-6.3-5.55-8.91-1.79-2.36-4.58-1.37-7.16-1.12-8.5.84-16.98,2.63-25.54,3.01-34.91,1.54-74.94-13.65-100.14-37.7-1.94-1.85-5.59-7.73-8.55-6.65-29.33,22.18-67.64-8.46-84.68-32.6-30.27-42.86-19.95-119.81,44.5-117.18,13.76.56,27.12,4.55,38.06,12.95.93.72,4.93,4.69,5.55,4.39.37-.18.59-.78.77-1.15,3.72-7.76,5.98-19.26,9.21-27.71,9.64-25.18,32.07-56.16,50.34-76.03,18.53-20.15,31.73-21.53,55.49-31.3,3.52-1.45,5.29-1.81,7.34-5.23,8.95-14.89,12.61-33.16,28.38-43.56,3.64-2.4,24.36-10.29,28.83-11.14,9.77-1.86,12.19,1.6,20.25,3.88,7.52,2.13,16.07-4.72,23.12-7.33,17.2-6.37,35.2,2.94,43.57,18.3,12.47,22.92,3.99,48.95-6.21,70.8-1.52,3.25-5.27,7.52-2.99,10.71s7.21,7.55,10.1,10.84c3.17,3.6,6.24,8.05,9.51,11.43.39.41.66.88,1.33.75Z"/> -->
      <g>
        <path fill="#fbfbfb" d="M237.05,231.83c4.97-3.42,1.48-8.89-3.34-7.9-2.93.6-4.49,3.77-2.72,6.36,1.5,2.19,3.72,3.16,6.06,1.55Z"/>
        <path fill="#ff8234" d="M86.93,229.81c3.81-5.66,9.47-10.71,12.88-16.43,2.57-4.31,3.64-6.17-.59-9.71-10.68-8.92-33.54-17.77-46.84-11.06-.48.24-1.48.67-1.31,1.34l26.62,17.92,1.17,2.82-3-.61c-9.38-4.76-18.75-13.17-28.02-17.66-2.53-1.23-3.5-.86-5.92.19-5.33,2.31-9.92,7.62-12.14,12.91.15.65,10.44,5.34,11.9,6,9.07,4.15,18.91,7.5,27.8,11.79,1.57.76,2.94,1.25,3.67,2.99-1.24.35-2.54.65-3.82.21-13.54-5.87-27.53-10.74-40.92-16.91-.6.04-3.33,7.32-3.71,8.42-.89,2.58-4.79,15-4.47,16.83.09.49.35.88.73,1.19,1.18.98,11.76,1.75,14.25,2.12,8.74,1.31,19.66,2.56,28.06,4.68,1,.25,3.59,1.14,4.32,1.7.33.26.35.69.23.98-.37.87-3.43.63-4.37.57-12.95-.85-26.88-5.17-39.98-5.7-1.64-.07-3.55-.32-4.76,1.03l-.59,20.3c.16,2.56,2.2,2.34,4.22,2.28,11.33-.35,23.93-3.22,35.39-4.2,1.04-.09,8.26-.69,8.56-.38,1.22,1.23-2.66,3.37-3.71,3.33-14.04,1.89-28.26,3.19-42.19,5.41l-.37,1.19c2.93,6.88,6.32,13.6,9.9,20.14,1.79,1.57,4.97.35,7.05-.2,9.57-2.53,21.46-8.03,30.82-9.53,1.69-.27,5.17-.96,4.97,1.35l-39.19,13.49c4.85,5.85,10.74,10.84,15.95,16.41.78.82,2.02.7,2.96.25,8.15-4.09,16.44-10.89,24.59-14.62.49-.22,3.15-1.19,3.3-1.07.88,1.67-.87,2.47-1.77,3.75l-24.88,15.29,18.08,10.22c3.13-.1,12.76-11.81,15.42-9.84-1.55,4.16-5.37,7.24-7.98,10.86-.27.37-1.45,1.75-1.16,2.08,4.23.59,7.09,3.63,11.58,3.01,1.51-.21,4.41-1.76,5.81-2.56.96-.55,3.41-1.68,3.56-2.55.36-2-3.19-5.93-4.36-7.83-15.46-24.98-25.35-66.09-7.77-92.2ZM41.75,259.61c-1.47-.07-12.3-1.07-12.74-1.54-.17-.18.05-1.44-.02-1.89,4.03.18,7.98-.44,12.01-.4,6.11.07,16.17.82,22.06,2.3.53.13,1.19,0,1.33.76-7.51.53-15.09,1.15-22.65.76ZM70.09,296.7c-2.24,1.74-6.69,3.89-9.36,5.11-4.04,1.85-8.3,3.54-12.7,4.24-.9-.87,3.85-3.74,4.45-4.11,2.36-1.47,17.46-8.73,19.15-7.3.45.38-1.25,1.84-1.55,2.07ZM69.86,220.48c-4.69-2.11-9.94-4.78-14.47-7.23-3.41-1.85-8.21-4.37-11.31-6.51-.59-.41.3-1.59.71-1.87,11.72,4.73,22.86,10.64,33.7,17.08.05.07-.57,1.22-.76,1.35-.74.49-6.65-2.26-7.87-2.81Z"/>
        <path fill="#ff8234" d="M244.41,263.55c13.78,0,24.95-11.17,24.95-24.95s-11.17-24.95-24.95-24.95-24.95,11.17-24.95,24.95,11.17,24.95,24.95,24.95ZM233.34,220.89c2.84-.53,4.34.79,6.76,1.05,3.68.4,6.36-.53,10.2.84,11.07,3.98,14.95,17.92,7.5,27.12-8.35,10.33-24.03,8.43-28.18-4.54-1.46-4.55-.08-7.44-.35-11.43-.16-2.29-2.06-3.78-1.93-6.09.17-3.01,3-6.4,6.01-6.96Z"/>
        <path fill="#fbfbfb" d="M266.29,117.34c17.61,10.22,24.01,29,30.63,47.03,21.7,59.12,49.85,139.36-11.59,184.62-4.65,3.43-9.8,6.23-14.21,9.96,22.7-8.47,40.4-28.08,48.36-50.8,18.94-54.09-1.14-109.95-18.65-161.39-7.04-20.7-16.28-40.21-39.44-46.21-15.55-4.03-34.09-5.18-50.17-7.31-8.28-1.1-25.06-5.45-32.22-2.04-.67.32-1.27.75-1.87,1.18l-9.17,8.91c12.84,3.08,25.63,6.62,38.69,8.71,17.91,3.21,43.78-1.86,59.65,7.35Z"/>
        <path fill="#fbfbfb" d="M244.92,283.34c27.32,0,49.47-22.14,49.47-49.46s-22.15-49.46-49.47-49.46-49.47,22.14-49.47,49.46,22.15,49.46,49.47,49.46ZM244.48,210.35c15.61,0,28.26,12.65,28.26,28.25s-12.65,28.25-28.26,28.25-28.26-12.65-28.26-28.25,12.65-28.25,28.26-28.25Z"/>
        <path fill="#ff8234" d="M261.04,370.37c-.98-.68-1.32-.86-2.56-.69-1.44.2-8.33,2.3-9.64,2.95-2.15,1.06-1.91,1.71-.86,3.57.78,1.39,3.93,4.91,5.47,5.19,3.56.64,8.8.44,12.27-.64,1.12-.35,4.06-1.27,3.14-2.59-.73-1.06-6.75-7.05-7.82-7.79Z"/>
        <path fill="#ff8234" d="M146.93,201.11c-24.07,2.71-25.38,43.75,0,46.6,4.02.45,6.02.2,6.53-4.31.46-4.06-2.79-1.99-5.48-2.05-8.07-.19-14.07-7.23-14.15-15.1-.02-2.2.95-4.42,1.02-6.4.1-2.9-1.76-3.78-.58-7.04,1.42-3.92,3.95-4.98,7.94-4.53,4.82.53,13.14,2.52,16.78,5.68.61.53,2.24,2.76,2.67,2.65,7.9-10.09-5.84-16.5-14.74-15.5Z"/>
        <path fill="#ff8234" d="M219.81,367.4c16.16-2.92,31.78-4.64,46.88-11.54,54.13-24.74,56.98-87.26,43.54-137.81-6.32-23.77-15.94-55.88-28-77.06-16.22-28.48-45.18-22.52-72.92-25.67-15.24-1.73-30.38-5.33-45.64-6.72-.83.26-1.7.53-2.46.98-2.12,1.25-7.53,9.06-9.4,11.54-11.25,14.96-23.22,31.94-30.21,49.34-6.39,15.9-11.66,41.58-22.36,54.15-7.45,8.75-10.89,11.04-13.79,23.13-8.53,35.58,10.52,76.9,39.36,97.83,28.21,20.47,63.51,30.09,98.34,25.57-.46-.89-5.04-2.53-3.35-3.73ZM240.86,143.15c12.8-1.17,29.6,7.89,37.89,17.3,2.26,2.57,5.15,6.25,5.32,9.71l-11.24-10.65c-9.81-8.5-22.55-12.43-35.33-13.78-2.21-1.71,2.04-2.47,3.36-2.59ZM245,180.54c29.41,0,53.26,23.84,53.26,53.25s-23.84,53.25-53.26,53.25-53.26-23.84-53.26-53.25,23.84-53.25,53.26-53.25ZM151.48,134.48c5.06-1.78,12.24-1.53,14.57,4.1-4.28.14-7.53-1.63-11.99-1.14-2.11.23-11.47,4.59-11.99,4.19.09-.34-.3-.78-.27-.96.22-1.29,8.14-5.64,9.68-6.18ZM108.57,235.06c-2.27-22.46,8.07-67.02,36.48-67.83,17.14-.49,28.48,23.01,24.44,37.78-2.8,10.25-7.4,20.42-10.39,30.72-3.55,12.28-3.99,24.19-17.91,29.67-20.71,8.14-30.91-13.45-32.62-30.33ZM176.7,356.49c-1.31-.62-6.66-3.26-5.32-5.15,2.2.94,19.43,4.35,19.41,5.9-3.61,3.47-10.12,1.14-14.09-.75ZM144.29,317.34c-1.59-3.04-2.9-5.8-1.48-9.22,4.54-1.08,8.28,2.08,12.39,3.65,19.93,7.64,39.66,5.06,59.59-.96,1.71-.52,12.73-4.05,13.16-4.75.43-.7-.56-2.95.79-3.4.72-.24,6.08,1.47,7.18,1.87,4.72,1.7,12.3,5.45,15.03,9.71.92,1.44-.41,1.37-1.41,1.03-3.76-1.25-8.33-5.6-12.02-7.02-.55-.21-.88-.42-1.52-.24-1.52.42-5.75,9.03-6.97,10.95-19.83,31.15-66.9,32.58-84.74-1.62Z"/>
        <path fill="#fbfbfb" d="M166.73,318.88c-2.28-.41-4.85-1.43-6.99-1.77-2.02-.32.08,2.15.61,2.82,6.73,8.49,19.57,7.67,29.49,6.67,13.38-1.35,29.32-6.87,38.64-16.74-20.03,7.55-40.18,12.88-61.75,9.02Z"/>
        <path fill="#ff8234" d="M247.84,56.87l16.25-27.53c-.45-.65-.7-.27-1.22-.08-4.87,1.8-13.69,5.51-17.44,8.83-3.66,3.23-4.69,7.23-6.97,11.3-2.38,4.25-4.83,8.48-7.3,12.68.76.55,16.31-1.71,16.68-5.2Z"/>
        <path fill="#fbfbfb" d="M140.46,210.97c-3.26.37-5.37,3.98-2.59,6.61,4.15,3.94,10.2-2.63,5.16-5.92-.82-.53-1.57-.8-2.56-.69Z"/>
        <path fill="#fbfbfb" d="M146.07,250.85c-31.13-4.06-26.44-56.18,5.7-53.27,5.57.5,9.77,4.64,14.66,6.84,2.01-8.07-1.39-19.53-6.66-25.88-13.74-16.58-32.28-3.32-39.47,11.93-8.5,18.01-15.11,56.22,3.14,70.06,9.17,6.95,23.5.78,27.77-9.08.03-.82-4.42-.5-5.15-.59Z"/>
        <path fill="#ff8234" d="M392.2,137.62c-.02.68,5.78,7.96,6.36,8.13.35.1.66.1,1.02.06,1.26-.12,7.29-4.03,9.23-4.89,7.22-3.21,15.44-4.58,22.98-6.92-.95-3.93-2.86-8.72-5.39-11.91-1.91-2.41-2.88-3.35-6.04-1.99-8.16,5.45-17.81,9.75-25.84,15.28-.71.49-2.29,1.3-2.31,2.24ZM409.07,132.04c3.65-1.58,8.13-2.96,12.06-2.22l-20.56,9.13c1.04-3.28,5.46-5.6,8.5-6.92Z"/>
        <path fill="#ff8234" d="M418.84,116.51c-9.58-3.78-17.8.42-23.97,7.81-.9,1.07-6.02,8.57-5.34,9.31l29.31-17.12Z"/>
        <path fill="#fbfbfb" d="M369.74,122.77c1.61,27.42-18.26,45.49-17.54,72.35.92,34.46,10.96,68.72,6.06,103.47-.39,2.78-1.47,5.45-1.86,8.23,2.07-.27,3.63-1.76,5.29-2.89,1.82-1.25,6.11-4.18,6.79-6.15.71-2.05.55-5.2.92-7.46,3.65-22.29,10.45-44.45,14.67-66.78,4.69-24.75,9.66-60.38,1.84-84.57-1.48-4.58-11.59-18.27-15.18-21.94-.17-.17-1.7-1.36-1.76-1.28-.34,2.39.64,4.69.77,7.03Z"/>
        <path fill="#ff8234" d="M422.18,139.83c-6.79,1.93-13.39,5.35-19.7,8.47-.83.51-.92,1.26-.69,2.17.2.78,6.37,8.46,7.34,9.43,1.48,1.48,1.97,1.32,4.02.96,6.29-1.1,13.55-5.03,20.05-6.21,1.28-.61,1.66-3.54,1.64-4.82-.02-1.35-1.29-9.32-1.71-10.5-.33-.94-.95-1.25-1.91-1.31-2.15-.13-6.81,1.18-9.04,1.82ZM410.08,153.04c1.25-2.61,5.2-4.1,7.91-4.83,3.32-.91,6.7-1.43,9.98-.1l-17.89,4.94Z"/>
        <path fill="#ff8234" d="M432.46,158.44l-18.95,5.65c-.18.2.62,1.85.88,2.16l9.4,8.3c2.57,1.19,5.76-3.78,6.91-5.64,1.04-1.67,6.51-11.08,1.75-10.47Z"/>
        <path fill="#ff8234" d="M269.79,59.03c3.45-3.55,6.24-7.68,9.51-11.42,7.67-8.77,15.95-17.07,23.8-25.69l-.48-.65c-7.14-2.54-13.07-7.55-20.71-3.4-4.07,2.21-8.07,6.03-12.08,8.47-6.27,10.9-13.52,21.32-18.88,32.7h18.85ZM273.97,35.05c3.06-3.66,7.29-8.39,12-9.5l-20.56,23.97c1.54-5.34,5.02-10.24,8.56-14.47Z"/>
        <path fill="#ff8234" d="M328.98,75.22c-.43.24-.93-.02-.75.75,8.06,5.39,16.09,10.96,24.21,16.18,1.85.26,2.74-1.49,3.73-2.7,6.34-7.68,11.2-18.61,12.41-28.5-1.61.35-3.37.2-4.97.55-9.36,2.01-26.12,9.05-34.63,13.73Z"/>
        <path fill="#ff8234" d="M278.16,54.84c-2.44,3.08-4.25,3.96.56,5.16,4.21,1.05,12.46,2.8,16.62,3.19,1.79.17,2.61-.25,3.96-1.29,4.78-3.68,9.79-9.55,14.45-13.72,10.09-9.02,20.76-17.57,32.74-23.98,1.33-.71,5.8-2.44,6.48-3.04.9-.79-.19-1.34-.79-1.87-4.96-4.33-13.44-6.26-19.86-5.45-4.75.6-11.14,3.86-15.98,5.34-8.29,2.53-8.34,1.49-14.58,8.26-7.67,8.32-16.6,18.56-23.6,27.4ZM335.46,21.91c.6-.03.96.03,1.52.21l-10.47,6.46c-11.55,7.26-21.26,16.91-31.4,25.89-.35-.42,1.52-3.42,1.89-4.01,5.53-8.69,28.2-27.94,38.46-28.55Z"/>
        <path fill="#ff8234" d="M322.9,73.31c1.71.66,3.29-.27,4.83-.89,10.76-4.34,18.71-9.94,30.58-12.82,2.56-.62,7.8-1.02,9.79-2.01,1.82-.9,1.37-3.75,1.25-5.59-.44-6.49-2.91-13.82-6.02-19.48-.92-1.68-6.26-10.22-8.08-9.86-19.85,11.11-37.61,25.69-53.66,41.7l21.31,8.95ZM336.35,49.07c6.11-3.49,12.96-6.83,20.05-7.54.1.75-.63,1.32-1.18,1.68-2.81,1.82-8.29,3.66-11.64,5.49-2.75,1.49-5.43,3.2-8.09,4.86-3.51,2.19-10.99,8.28-14.13,9.47-.63.24-1.23.27-1.89.2,3.48-6.14,10.81-10.67,16.88-14.14Z"/>
        <path fill="#ff8234" d="M368.59,311.38c-.21.3.19.99.61,1.08.96-.56,6.75-.45,7-.7.22-.22-.03-1.34-.62-1.49-.34-.09-6.79.83-6.99,1.12Z"/>
        <path fill="#ff8234" d="M518.47,203.21c-2.73-11.59-12.01-21.71-20.81-29.43-3.98-3.49-4.16-3.45-9.6-3.12-7.7.47-19.64,4.26-27.33,6.55-9.79,2.91-14.52,10.5-19.81,18.64-8.23,12.7-11.59,22.13-16.08,36.45-6.11,19.47-11.24,39.24-15.85,59.14-.12,1.23-.32,2.52.97,3.14,14.82,6.24,29.92,13.91,43.79,22.07,2.2,1.3,9.72,6.99,11.44,7.22.78.1,3.28-.68,4.2-.97,4.4-1.36,14.68-8.6,18.87-11.59,9.56-6.83,14.09-12.65,18.98-23.27,11.86-25.76,17.83-56.81,11.24-84.82ZM454.15,183.97c5.85-1.28,13.18-1.59,19.27-2.43,5.89-.81,13.88-2.79,19.49-3,1.44-.05,4.46,1.51,3.6,2.67-.95,1.27-20.88,3.92-23.8,4.19-3.36.31-7.31.68-10.64.78-3.63.11-7.34.13-10.87-.78.47-.85,2.08-1.23,2.95-1.42ZM443.13,199.59c12.65-3.68,30.17-6.26,43.47-8.68,2.17-.4,7.22-1.76,8.97-1.71,1.02.03,1.8.84,2.84.78-.53,1.2-1.42,2.39-2.74,2.78-16.42,3.03-33.43,7.85-49.99,9.77-1.21.14-5.15.62-6.02.4-.3-.07-.68-1.07-.66-1.31.04-.46,3.42-1.82,4.13-2.02ZM496.5,198.34c-.09.57-1.3.85-1.81,1.04-5.03,1.94-11.79,3.13-17.16,4.16-9.04,1.74-18.27,3.15-27.48,3.54l5.55-1.87c13.4-3.39,27.1-5.71,40.89-6.88ZM434.64,215.08c20.4-4.33,41.22-7.32,61.73-11.4l1.98.81c.07,3.71-6.07,3.8-9.01,4.39-15.26,3.06-34.05,6.58-49.42,8.07-2.32.22-4.47.61-6.61-.34l1.33-1.52ZM434.36,225.47l61.21-8.81c.43.2,2.74.97,2.83,1.1.58.78-2.62,2.58-3.32,2.57l-65.96,8.46c-.49-2.53,3.49-2.63,5.24-3.32ZM442.06,230.31c4.17-.4,8.21-1.43,12.38-1.9,11.49-1.31,25.85-2.76,37.31-3.04,1.04-.03,5.38.03,5.89.76.39.57-.53,1.92-1.34,1.89-13.95.62-27.95,3.14-41.87,3.81-1.55.07-11.94.45-12.37,0-.09-.1.06-1.15,0-1.52ZM423.79,245.72c1.42-.99,9.01-.48,11.24-.56,16.94-.6,34.04-1.28,50.98-1.55,2.6-.04,10.32-.56,11.9,1.27,1.21,1.41-.32,2.83-1.96,2.57-22.81-.98-46.63,1.25-69.32,0-.5-.03-3.11-.28-3.22-.4-.18-.19-.01-1.05.38-1.33ZM497.64,255.43c-1.75,2.61-4.63,1.18-7.03,1.12-13.64-.33-27.96-.27-41.51-1.51-1.06-.1-8.15-.77-8.18-1.71.26-1.18,2.41-1.24,3.61-1.33,4.08-.3,8.15.29,12.16.39,10.08.25,20.42.32,30.47,1.13,3.43.28,7.48.42,10.47,1.9ZM471.98,314.39c-19.9-7.28-39.46-15.51-59.2-23.22-.09-1.6.65-2.9,2.34-2.94,21.02,6.78,40.82,16.79,61.58,24.31.27,2.24-3.11,1.92-4.71,1.85ZM486.23,297.68c-.19.19-4.78.44-5.49.35-2.3-.3-7.01-2.21-9.56-3-16.92-5.26-33.89-11.2-50.45-17.31l-1.12-2.11c1.65-.21,3.01.19,4.56.57,13.81,3.38,29.56,9,43.22,13.5,6.09,2,12.11,4.19,18.2,6.16.68.05.82,1.66.64,1.84ZM435.97,274.84c14.86,2.41,29.32,6.62,43.78,10.66-.34,1.01-1.63.8-2.46.76-9.39-.41-25.75-4.98-34.76-8.27-2.13-.78-4.95-1.63-6.56-3.14ZM495.36,283.82c-14.22-2.92-28.47-5.66-42.64-8.78-8.7-1.92-19.59-3.72-27.87-6.39-.59-.19-2.68-.93-2.97-1.21-.38-.37-.55-1.54-.37-1.72.33-.33,8,1.05,9.21,1.26,19.26,3.31,39.89,7.5,58.94,11.86,3.1.71,7.13.81,8.74,3.81,0,.32-2.48,1.36-3.04,1.17ZM492.12,265.71c-8.9-.19-17.4-1.33-26.22-2.33-10.06-1.15-30.82-2.55-39.44-5.86-2.21-.85-3.45-2.65-.21-2.46,16.38.96,33.8,4.01,50.27,5.7,5.98.61,13.27.47,19.01,1.55,1.14.21,2.72,1.38,2.87,2.64-2.41,1.82-3.9.82-6.28.77ZM496.69,234.87c-20.3,1.44-40.57,3.08-60.92,3.8-1.86.07-6.92.95-8.47-.05-.28-.18-.64-1.26-.08-1.65.53-.36,3.86-.84,4.77-.95,20.24-2.47,41.35-2.68,61.67-4.95,3.5-.77,7.21,1.2,3.03,3.79Z"/>
        <path fill="#ff8234" d="M417.78,176.37c-.97-2.69-9.59-11.26-12.08-14.19-2.92-3.43-5.84-6.93-8.36-10.65-1.26.44-1.02.84-.97,2.08.23,5.59,1.84,11.81,2.3,17.51,2.09,25.83-4.11,55.29-10.76,80.2-3.69,13.81-8.59,27.36-11.31,41.4,2.62-.49,5.39-1.68,6.66-4.19,10.67-33.55,33.69-67.12,35.23-102.94.12-2.75.22-6.67-.7-9.23Z"/>
        <path fill="#ff8234" d="M366.31,315.74c-2.63-1.18-4.8-3-7.54-3.88-4-1.28-8.28-1.19-12.34-2.12-.82-.19-4.97-1.44-5.41-1.75-.47-.34-.16-1.06-.23-1.56,2.42-.54,7.99,2.49,8.97-.74,3.45-26.35,3.28-52.65-.65-78.93-2.07-13.85-5.54-26.5-4.12-40.79,2.48-24.93,23.95-43.52,15.33-70.53-4.67-14.64-10.56-19.5-22.9-27.73-28.56-19.02-59.84-26.99-94.22-22.16-18.69,2.62-36.05,10.39-53.16,17.84l.65,1.06c12.55,2.16,25.04,4.77,37.67,6.49,13.11,1.79,26.53,2.15,39.26,6.04,22.97,7.02,31.47,25.51,38.64,46.63,9.73,28.67,20.14,61.9,24.21,91.88,3.91,28.78-1.25,78.36-22.02,100.44-2.07,2.2-5.06,3.73-6.1,6.65l28.72-18.29c1.73-2.05-3.46-6.51-3.22-9.11.41.14.87-.35.96-.35.26,0,2.75,3.48,3.16,4.04,4.48,6.12,7.85,13.04,12.64,18.95,1.11,1.37,3.41,4.24,4.74,5.16.39.27.41.57.98.19.57-.38,5.44-11.06,5.88-12.39.96-2.91.37-4.18-2.32-5.65-5.22-2.86-20.19-7.1-23-11.64-.44-.71-.6-1.66-.75-2.48.8-.12,1.43.06,2.18.29,3.21,1.03,7.56,4.56,11.01,6.12,7.96,3.6,21.98,8.21,30.51,10.22,3.56.84,4.42,1.19,4.92-2.85.2-1.62.53-3.85-.9-4.98-1.56-1.23-8.9-2.87-11.55-4.06ZM337.12,320.94c1.38.12,10.24,9,12.42,10.05l.39,1.7c-.88.9-7.53-3.73-8.56-4.57-.96-.79-2.67-2.47-3.4-3.45-.53-.71-2.67-3.89-.85-3.73ZM353.54,319c-2.87-.97-6-2.37-8.53-4.04-.44-.29-4.07-2.61-3.46-3.2l25.51,9.13c-4.41.86-9.31-.47-13.52-1.89Z"/>
        <path fill="#fbfbfb" d="M438.1,188.48c.68-1.06,5.26-6.64,4.72-7.26-.43-.15-.79.36-.95.38-3.51.41-8.48,0-12.18,0-1.06,0-6.05-2.53-6.28-2.28-.04,1.12.43,2.09.41,3.23-.7,35.86-19.51,70.43-29.25,104.38-1.22,4.04,2.87,3.75,5.63,4.13,4.05-17.16,9.03-33.99,14.83-50.66,6.17-17.73,12.97-36.03,23.07-51.91Z"/>
        <path fill="#ff8234" d="M357.74,334.98c-.48.11-3.39,8.24-3.46,9.11-.19,2.37,6.16-.5,6.53-1.86.2-.74-1.63-5.41-2.11-6.32-.21-.4-.33-1.08-.97-.93Z"/>
        <path fill="#ff8234" d="M298.89,362.98c-1.25-.93-5.67-2.96-7.33-3.71-2.51-1.13-3.27-1.43-5.96-.5-6.81,2.37-13.58,6.88-20.56,8.94,3.48,2.71,6.92,6.63,10.48,9.12,1.07.75,1.23,1.03,2.63,1.18,3.87.41,12.95.28,16.47-1.09,5.45-2.14,10.04-9.64,4.28-13.94Z"/>
        <path fill="#ff8234" d="M361.83,327.83c-.59-.08-1.78-.29-1.98.52-.15.63,4.56,11.6,5.09,11.99,1.37,1,3.33-.41,4.66-1.1,2.43-1.27,7.61-4.36,5.74-7.59-4.26-.78-9.36-3.23-13.52-3.81Z"/>
      </g>
    </g>
  </g>
</svg>